<svg width="329" height="148" xmlns="http://www.w3.org/2000/svg">

 <g>
  <title>background</title>
  <rect fill="none" id="canvas_background" height="150" width="331" y="-1" x="-1"/>
 </g>
 <g>
  <title>Layer 1</title>
  <g id="svg_14">
   <path transform="rotate(-90 163.9719390869141,145.37815856933594) " id="svg_11" fill="#E3E3E3" d="m161.321934,57.008459l0,176.7397c0,1.461 1.19331,2.63 2.65005,2.63c1.45673,0 2.64995,-1.184 2.64995,-2.63l0,-176.7397c0,-1.4613 -1.19322,-2.6303 -2.64995,-2.6303c-1.45674,0 -2.65005,1.1844 -2.65005,2.6303z"/>
   <path transform="rotate(-90 163.9719390869141,2.6782073974609237) " id="svg_12" fill="#E3E3E3" d="m161.321933,-85.691493l0,176.7397c0,1.461 1.193,2.63 2.65,2.63c1.457,0 2.65,-1.184 2.65,-2.63l0,-176.7397c0,-1.4613 -1.193,-2.6303 -2.65,-2.6303c-1.457,0 -2.65,1.1844 -2.65,2.6303z"/>
   <path transform="rotate(-90 39.29283905029299,74.04376220703126) " id="svg_13" fill="#E3E3E3" d="m-34.660592,109.707262c0,1.4763 1.19649,2.6574 2.65723,2.6574c1.46072,0 2.65732,-1.1966 2.65732,-2.6574c0,-37.8547 30.79963,-68.6543 68.65433,-68.6543c37.8551,0 68.6541,30.7996 68.6541,68.6543c0,1.4763 1.197,2.6574 2.658,2.6574c1.46,0 2.657,-1.1966 2.657,-2.6574c0,-40.7917 -33.193,-73.9844 -73.9847,-73.9844c-40.7916,0 -73.98439,33.1927 -73.98439,73.9844l0.03111,0z"/>
   <g transform="rotate(90 255.02841186523438,74.02810668945315) " id="svg_17">
    <path transform="rotate(-90 255.02842712402347,74.02810668945311) " id="svg_1" fill="#E3E3E3" d="m307.378305,126.377603c28.867,-28.867 28.867,-75.832 0,-104.699c-28.8674,-28.867 -75.8326,-28.867 -104.6997,0c-28.86708,28.867 -28.86708,75.832 0,104.699c28.8671,28.867 75.8323,28.867 104.6997,0zm-101.2107,-101.21c26.9436,-26.944 70.7778,-26.944 97.7147,0c26.943,26.944 26.943,70.778 0,97.714c-26.9439,26.944 -70.7781,26.944 -97.7147,0c-26.94353,-26.943 -26.94353,-70.777 0,-97.714z"/>
    <path transform="rotate(-90 211.60018920898438,117.44589233398436) " id="svg_2" fill="#E3E3E3" d="m205.353168,145.169642c0.2598,-0.259 0.4704,-0.589 0.5897,-0.954c2.5624,-7.582 6.7465,-14.3 12.4329,-19.987c5.6793,-5.679 12.4047,-9.863 19.9865,-12.433c1.0039,-0.344 1.6778,-1.277 1.6778,-2.337l0,-17.993c0,-0.758 -0.351,-1.474 -0.9477,-1.945c-0.6037,-0.47 -1.383,-0.632 -2.1131,-0.449c-12.9593,3.243 -24.8234,9.969 -34.3007,19.453c-9.4773,9.484 -16.20271,21.341 -19.44605,34.301c-0.18252,0.737 -0.01403,1.516 0.44931,2.12c0.47035,0.604 1.18642,0.948 1.94461,0.948l17.99283,0c0.6739,0 1.2917,-0.274 1.748,-0.731l-0.0141,0.007zm9.5335,-24.43c-5.7987,5.799 -10.1723,12.594 -13.0225,20.218l-13.01548,0c3.27138,-10.895 9.21758,-20.85 17.31188,-28.944c8.0943,-8.094 18.0489,-14.04 28.9373,-17.305l0,13.016c-7.624,2.843 -14.4195,7.216 -20.2182,13.022l0.007,-0.007z"/>
    <path transform="rotate(-90 298.4642944335938,30.604019165039038) " id="svg_3" fill="#E3E3E3" d="m307.386085,39.517679c9.477,-9.477 16.21,-21.341 19.453,-34.3c0.182,-0.737 0.014,-1.517 -0.449,-2.113c-0.471,-0.604 -1.187,-0.948 -1.945,-0.948l-17.993,0c-1.06,0 -2.001,0.674 -2.338,1.678c-2.562,7.582 -6.746,14.3 -12.432,19.986c-5.68,5.68 -12.4051,9.864 -19.9869,12.433c-1.0039,0.337 -1.6777,1.278 -1.6777,2.338l0,17.993c0,0.758 0.351,1.474 0.9477,1.944c0.6037,0.471 1.383,0.632 2.1201,0.449c12.9588,-3.243 24.8168,-9.968 34.3008,-19.445l0,-0.015zm13.823,-32.433c-3.272,10.895 -9.218,20.85 -17.312,28.944c-8.094,8.095 -18.049,14.041 -28.9445,17.312l0,-13.015c7.6235,-2.843 14.4195,-7.217 20.2185,-13.016c5.798,-5.798 10.172,-12.594 13.022,-20.218l13.016,0l0,-0.007z"/>
    <path transform="rotate(-90 298.44641113281256,117.4573516845703) " id="svg_4" fill="#E3E3E3" d="m326.17078,145.18988c0.4633,-0.463 0.7231,-1.088 0.7231,-1.748l0,-17.993c0,-1.06 -0.6739,-2.001 -1.6778,-2.338c-7.5819,-2.562 -14.3002,-6.746 -19.9865,-12.432c-5.6864,-5.687 -9.8634,-12.405 -12.4328,-19.987c-0.337,-1.004 -1.2777,-1.678 -2.3378,-1.678l-17.99279,0c-0.75818,0 -1.47425,0.351 -1.94461,0.948c-0.47035,0.597 -0.63182,1.383 -0.4493,2.113c3.25036,12.959 9.9758,24.816 19.4531,34.301c9.4772,9.484 21.3414,16.209 34.3007,19.453c0.7371,0.182 1.5164,0.014 2.1131,-0.45c0.0772,-0.07 0.1544,-0.133 0.2246,-0.203l0.007,0.014zm-4.2121,-18l0,13.016c-10.8954,-3.272 -20.85,-9.218 -28.9443,-17.312c-8.0943,-8.095 -14.0334,-18.049 -17.31188,-28.945l13.01548,0c2.8432,7.624 7.2168,14.413 13.0225,20.219c5.7987,5.798 12.5942,10.179 20.2182,13.022z"/>
    <path transform="rotate(-90 211.6002349853516,30.597122192382802) " id="svg_5" fill="#E3E3E3" d="m239.325144,58.320826c0.07,-0.07 0.14,-0.147 0.196,-0.224c0.471,-0.597 0.632,-1.383 0.45,-2.12c-3.244,-12.96 -9.969,-24.824 -19.453,-34.301c-9.485,-9.477 -21.342,-16.21 -34.301,-19.453c-0.7371,-0.183 -1.5164,-0.014 -2.1131,0.449c-0.5967,0.47 -0.9478,1.187 -0.9478,1.945l0,17.993c0,1.06 0.674,2 1.6778,2.337c7.5819,2.563 14.3001,6.747 19.9871,12.433c5.679,5.679 9.863,12.405 12.432,19.987c0.337,1.003 1.278,1.677 2.338,1.677l17.993,0c0.66,0 1.292,-0.259 1.748,-0.716l-0.007,-0.007zm-51.2337,-50.461c10.8957,3.271 20.8497,9.218 28.9447,17.312c8.094,8.094 14.033,18.049 17.312,28.944l-13.016,0c-2.843,-7.624 -7.217,-14.412 -13.022,-20.218c-5.799,-5.799 -12.595,-10.172 -20.2187,-13.022l0,-13.016z"/>
    <path transform="rotate(-90 255.0290679931641,74.02761840820311) " id="svg_6" fill="#E3E3E3" d="m214.894473,33.89349c22.1277,-22.128 58.1413,-22.135 80.269,0c22.135,22.134 22.128,58.141 0,80.269c-22.1277,22.127 -58.1343,22.134 -80.269,0c-22.1348,-22.135 -22.1277,-58.142 0,-80.269z"/>
    <path stroke="null" transform="rotate(-90 245.15545654296875,58.702194213867166) " id="svg_8" fill="#110A1D" d="m244.580522,64.223692c0.4422,0 0.8915,-0.098 1.2987,-0.295l3.1801,-1.537c1.383,-0.674 2.0149,-2.31 1.4392,-3.735l-1.4602,-3.637c-0.4493,-1.109 -1.5094,-1.832 -2.7028,-1.839c-0.5125,0 -1.0179,0.126 -1.4672,0.386l-3.7909,2.162c-0.7091,0.401 -1.2215,1.096 -1.4041,1.896c-0.1825,0.8 -0.021,1.643 0.4423,2.317l2.078,3.011c0.5405,0.786 1.4391,1.264 2.3939,1.264l-0.007,0.007z"/>
    <path transform="rotate(-90 244.9469146728516,89.24400329589842) " id="svg_9" fill="#110A1D" d="m245.564404,94.776028c0.9547,0 1.8603,-0.456 2.4079,-1.235l2.0569,-2.9c0.4774,-0.667 0.6458,-1.509 0.4773,-2.309c-0.1684,-0.801 -0.6739,-1.503 -1.3829,-1.917l-3.9102,-2.295c-0.4423,-0.26 -0.9478,-0.401 -1.4603,-0.408c-1.1934,-0.007 -2.2675,0.702 -2.7309,1.805l-1.4742,3.531c-0.5897,1.418 0.021,3.068 1.39,3.756l3.3276,1.663c0.4001,0.197 0.8495,0.309 1.2917,0.309l0.0071,0z"/>
    <g id="svg_16">
     <path transform="rotate(-90 280.25891113281256,74.12986755371092) " id="svg_7" fill="#110A1D" d="m259.898196,70.157865l40.7724,0.271c1.7175,0.011 3.1007,1.413 3.0893,3.13l-0.0096,1.453c-0.0114,1.718 -1.413,3.101 -3.1306,3.09l-40.7724,-0.271c-1.7176,-0.011 -3.1007,-1.413 -3.0893,-3.13l0.0096,-1.453c0.0114,-1.718 1.413,-3.101 3.1306,-3.09z"/>
     <path transform="rotate(-90 249.82701110839847,74.01570892333983) " id="svg_10" fill="#110A1D" d="m267.770616,97.020643c0.89505,0.007 1.744475,-0.27025 2.446488,-0.759875c0.702012,-0.489625 1.256612,-1.191625 1.562012,-2.034125l3.4012,-9.3615l3.4012,-9.3615c0.2175,0.1055 0.44225,0.1985 0.671375,0.280125c0.229125,0.081625 0.462625,0.151875 0.697625,0.211875c0.2775,0.07 0.5565,0.1225 0.83725,0.1575c0.28075,0.035 0.56325,0.0525 0.84775,0.0525c0.165,0 0.32825,-0.0035 0.48975,-0.01225c0.1615,-0.00875 0.32125,-0.02275 0.47925,-0.04375c3.545,-0.449 6.234,-3.489 6.255,-7.069c0.014,-1.98 -0.77925,-3.78075 -2.071,-5.09c-1.29175,-1.30925 -3.082,-2.127 -5.062,-2.141c-1.9795,-0.014 -3.780125,0.77925 -5.088512,2.070875c-1.308388,1.291625 -2.124538,3.081625 -2.135088,5.061125c0,0.4565 0.038625,0.904 0.117625,1.340125c0.079,0.436125 0.198375,0.860875 0.359875,1.271875c0.08775,0.2245 0.186,0.44375 0.293913,0.657875c0.107912,0.214125 0.225487,0.423125 0.351887,0.627125l-6.4691,3.131l-6.4691,3.131l-4.9493,-7.1715l-4.9493,-7.1715c0.2071,-0.0875 0.4107,-0.18575 0.609913,-0.294625c0.199212,-0.108875 0.394037,-0.228375 0.583587,-0.358375c0.358,-0.242 0.693225,-0.514 1.002125,-0.814125c0.3089,-0.300125 0.591475,-0.628375 0.844175,-0.982875c0.42825,-0.6035 0.7582,-1.2615 0.981963,-1.953c0.223762,-0.6915 0.341337,-1.4165 0.344837,-2.154c0.01405,-1.9795 -0.779225,-3.78 -2.070937,-5.089125c-1.291713,-1.309125 -3.081863,-2.126875 -5.061563,-2.140875c-0.08775,0 -0.177275,0 -0.2668,0.00175c-0.089525,0.00175 -0.17905,0.00525 -0.2668,0.01225c-1.7726,0.119 -3.37495,0.8895 -4.566625,2.073375c-1.191675,1.183875 -1.972675,2.781125 -2.102575,4.553625c-0.05965,0.839 0.021075,1.66025 0.236063,2.442875c0.214987,0.782625 0.564237,1.526625 1.041637,2.211125c0.2527,0.358 0.533525,0.68975 0.8398,0.9925c0.306275,0.30275 0.638,0.5765 0.9925,0.8185c0.18605,0.13 0.3791,0.2495 0.577413,0.358375c0.198312,0.108875 0.401887,0.207125 0.608987,0.294625l-5.037,7.0975l-5.037,7.0975l-6.3638,-3.1835l-6.3638,-3.1835c0.11935,-0.2285 0.2264,-0.462 0.321163,-0.700625c0.094762,-0.238625 0.177237,-0.482375 0.247437,-0.731375c0.08425,-0.302 0.149175,-0.611 0.193038,-0.924375c0.043862,-0.313375 0.066662,-0.631125 0.066662,-0.950625c0,-0.144 -0.0035,-0.28775 -0.010512,-0.430625c-0.007013,-0.142875 -0.017538,-0.284875 -0.031588,-0.425375c-0.20355,-1.8045 -1.067025,-3.39125 -2.333287,-4.5295c-1.266263,-1.13825 -2.935313,-1.828 -4.750013,-1.8385c-3.9594,-0.028 -7.2028,3.174 -7.2239,7.133c-0.014,1.8885 0.7126,3.626 1.913938,4.923875c1.201337,1.297875 2.877412,2.156125 4.762362,2.286125l0.22465,0.007l0.22465,0.007c0.36505,0 0.726575,-0.02475 1.083713,-0.07575c0.357137,-0.051 0.709887,-0.12825 1.057387,-0.23325c0.22465,-0.0705 0.4458,-0.1495 0.661688,-0.239c0.215887,-0.0895 0.426512,-0.1895 0.630112,-0.302l3.19415,9.179l3.19415,9.179c0.29135,0.846 0.837175,1.55325 1.533938,2.05075c0.696762,0.4975 1.544462,0.78525 2.439562,0.79225l18.0279,0.1195l18.0279,0.1195l0,0.0035l0,0.0035z"/>
    </g>
   </g>
  </g>
 </g>
</svg>