<svg width="148" height="329" viewBox="0 0 148 329" fill="none" xmlns="http://www.w3.org/2000/svg">
<path d="M126.35 306.406C155.217 277.539 155.217 230.574 126.35 201.707C97.4826 172.84 50.5174 172.84 21.6503 201.707C-7.21678 230.574 -7.21678 277.539 21.6503 306.406C50.5174 335.273 97.4826 335.273 126.35 306.406ZM25.1393 205.196C52.0829 178.252 95.9171 178.252 122.854 205.196C149.797 232.14 149.797 275.974 122.854 302.91C95.9101 329.854 52.0759 329.854 25.1393 302.91C-1.80423 275.967 -1.80423 232.133 25.1393 205.196Z" fill="#E3E3E3"/>
<path d="M24.3353 238.352C24.5951 238.093 24.8057 237.763 24.925 237.398C27.4874 229.816 31.6715 223.098 37.3579 217.411C43.0372 211.732 49.7626 207.548 57.3444 204.978C58.3483 204.634 59.0222 203.701 59.0222 202.641V184.648C59.0222 183.89 58.6712 183.174 58.0745 182.703C57.4708 182.233 56.6915 182.071 55.9614 182.254C43.0021 185.497 31.138 192.223 21.6607 201.707C12.1834 211.191 5.45799 223.048 2.21465 236.008C2.03213 236.745 2.20062 237.524 2.66396 238.128C3.13431 238.732 3.85038 239.076 4.60857 239.076H22.6014C23.2753 239.076 23.8931 238.802 24.3494 238.345L24.3353 238.352ZM33.8688 213.922C28.0701 219.721 23.6965 226.516 20.8463 234.14H7.83082C11.1022 223.245 17.0484 213.29 25.1427 205.196C33.237 197.102 43.1916 191.156 54.08 187.891V200.907C46.456 203.75 39.6605 208.123 33.8618 213.929L33.8688 213.922Z" fill="#E3E3E3"/>
<path d="M126.346 306.406C135.823 296.929 142.556 285.065 145.799 272.106C145.981 271.369 145.813 270.589 145.35 269.993C144.879 269.389 144.163 269.045 143.405 269.045H125.412C124.352 269.045 123.411 269.719 123.074 270.723C120.512 278.305 116.328 285.023 110.642 290.709C104.962 296.389 98.2369 300.573 90.6551 303.142C89.6512 303.479 88.9774 304.42 88.9774 305.48V323.473C88.9774 324.231 89.3284 324.947 89.9251 325.417C90.5288 325.888 91.3081 326.049 92.0452 325.866C105.004 322.623 116.862 315.898 126.346 306.421V306.406ZM140.169 273.973C136.897 284.868 130.951 294.823 122.857 302.917C114.763 311.012 104.808 316.958 93.9125 320.229V307.214C101.536 304.371 108.332 299.997 114.131 294.198C119.929 288.4 124.303 281.604 127.153 273.98H140.169V273.973Z" fill="#E3E3E3"/>
<path d="M58.2952 325.207C58.7585 324.744 59.0183 324.119 59.0183 323.459V305.466C59.0183 304.406 58.3444 303.465 57.3405 303.128C49.7586 300.566 43.0403 296.382 37.354 290.696C31.6676 285.009 27.4906 278.291 24.9212 270.709C24.5842 269.705 23.6435 269.031 22.5834 269.031H4.59061C3.83243 269.031 3.11636 269.382 2.646 269.979C2.17565 270.576 2.01418 271.362 2.1967 272.092C5.44706 285.051 12.1725 296.908 21.6498 306.393C31.127 315.877 42.9912 322.602 55.9505 325.846C56.6876 326.028 57.4669 325.86 58.0636 325.396C58.1408 325.326 58.218 325.263 58.2882 325.193L58.2952 325.207ZM54.0831 307.207V320.223C43.1877 316.951 33.2331 311.005 25.1388 302.911C17.0445 294.816 11.1054 284.862 7.82692 273.966H20.8424C23.6856 281.59 28.0592 288.379 33.8649 294.185C39.6636 299.983 46.4591 304.364 54.0831 307.207Z" fill="#E3E3E3"/>
<path d="M145.156 238.352C145.226 238.282 145.296 238.205 145.352 238.128C145.823 237.531 145.984 236.745 145.802 236.008C142.558 223.048 135.833 211.184 126.349 201.707C116.864 192.23 105.007 185.497 92.048 182.254C91.3109 182.071 90.5316 182.24 89.9349 182.703C89.3382 183.173 88.9871 183.89 88.9871 184.648V202.641C88.9871 203.701 89.6611 204.641 90.6649 204.978C98.2468 207.541 104.965 211.725 110.652 217.411C116.331 223.09 120.515 229.816 123.084 237.398C123.421 238.401 124.362 239.075 125.422 239.075H143.415C144.075 239.075 144.707 238.816 145.163 238.359L145.156 238.352ZM93.9223 187.891C104.818 191.162 114.772 197.109 122.867 205.203C130.961 213.297 136.9 223.252 140.179 234.147H127.163C124.32 226.523 119.946 219.735 114.141 213.929C108.342 208.13 101.546 203.757 93.9223 200.907V187.891Z" fill="#E3E3E3"/>
<path d="M33.866 213.923C55.9937 191.795 92.0073 191.788 114.135 213.923C136.27 236.057 136.263 272.064 114.135 294.192C92.0073 316.319 56.0007 316.326 33.866 294.192C11.7312 272.057 11.7383 236.05 33.866 213.923Z" fill="#E3E3E3"/>
<path d="M53.5376 274.315L94.31 274.586C96.0275 274.597 97.4107 275.999 97.3993 277.716L97.3897 279.169C97.3783 280.887 95.9767 282.27 94.2591 282.259L53.4867 281.988C51.7691 281.977 50.386 280.575 50.3974 278.858L50.407 277.405C50.4184 275.687 51.82 274.304 53.5376 274.315Z" fill="#110A1D"/>
<path d="M88.7511 249.705C89.1933 249.705 89.6426 249.607 90.0498 249.41L93.2299 247.873C94.6129 247.199 95.2448 245.563 94.6691 244.138L93.2089 240.501C92.7596 239.392 91.6995 238.669 90.5061 238.662C89.9936 238.662 89.4882 238.788 89.0389 239.048L85.248 241.21C84.5389 241.611 84.0265 242.306 83.8439 243.106C83.6614 243.906 83.8229 244.749 84.2862 245.423L86.3642 248.434C86.9047 249.22 87.8033 249.698 88.7581 249.698L88.7511 249.705Z" fill="#110A1D"/>
<path d="M59.4017 249.507C60.3564 249.507 61.262 249.051 61.8096 248.272L63.8665 245.372C64.3439 244.705 64.5123 243.863 64.3438 243.063C64.1754 242.262 63.6699 241.56 62.9609 241.146L59.0507 238.851C58.6084 238.591 58.1029 238.45 57.5904 238.443C56.397 238.436 55.3229 239.145 54.8595 240.248L53.3853 243.779C52.7956 245.197 53.4063 246.847 54.7753 247.535L58.1029 249.198C58.503 249.395 58.9524 249.507 59.3946 249.507H59.4017Z" fill="#110A1D"/>
<path d="M91.9561 271.86C93.7462 271.874 95.3538 270.751 95.9646 269.066L102.767 250.343C103.202 250.554 103.666 250.715 104.136 250.835C104.691 250.975 105.252 251.045 105.821 251.045C106.151 251.045 106.474 251.031 106.79 250.989C110.335 250.54 113.024 247.5 113.045 243.92C113.073 239.96 109.872 236.717 105.912 236.689C101.953 236.661 98.7095 239.862 98.6884 243.821C98.6884 244.734 98.8429 245.611 99.1659 246.433C99.3414 246.882 99.5589 247.31 99.8117 247.718L86.8735 253.98L76.9749 239.637C77.3891 239.462 77.7893 239.244 78.1684 238.984C78.8844 238.5 79.5093 237.896 80.0147 237.187C80.8712 235.98 81.3345 234.555 81.3415 233.08C81.3696 229.121 78.1684 225.878 74.209 225.85C74.0335 225.85 73.8509 225.85 73.6754 225.864C70.1302 226.102 67.266 228.946 67.0062 232.491C66.8869 234.169 67.3291 235.776 68.2839 237.145C68.7893 237.861 69.4072 238.472 70.1162 238.956C70.4883 239.216 70.8884 239.434 71.3026 239.609L61.2286 253.804L48.501 247.437C48.7397 246.98 48.9292 246.503 49.0696 246.005C49.2381 245.401 49.3293 244.769 49.3293 244.13C49.3293 243.842 49.3153 243.555 49.2872 243.274C48.8801 239.665 45.8333 236.927 42.2039 236.906C38.2445 236.878 35.0011 240.08 34.98 244.039C34.952 247.816 37.8864 250.989 41.6563 251.249L42.1056 251.263C42.8357 251.263 43.5517 251.164 44.2467 250.954C44.696 250.813 45.1313 250.638 45.5385 250.413L51.9268 268.771C52.5095 270.463 54.1101 271.6 55.9003 271.614L91.9561 271.853V271.86Z" fill="#110A1D"/>
<path d="M4.86374e-05 74.6303V251.37C4.86374e-05 252.831 1.19336 254 2.6501 254C4.10683 254 5.30005 252.816 5.30005 251.37V74.6303C5.30005 73.169 4.10683 72 2.6501 72C1.19336 72 4.86374e-05 73.1844 4.86374e-05 74.6303Z" fill="#E3E3E3"/>
<path d="M142.7 74.6303V251.37C142.7 252.831 143.893 254 145.35 254C146.807 254 148 252.816 148 251.37V74.6303C148 73.169 146.807 72 145.35 72C143.893 72 142.7 73.1844 142.7 74.6303Z" fill="#E3E3E3"/>
<path d="M0.0310211 73.9844C0.0310211 75.4607 1.22751 76.6418 2.68825 76.6418C4.14897 76.6418 5.34557 75.4452 5.34557 73.9844C5.34557 36.1297 36.1452 5.3301 73.9999 5.3301C111.855 5.3301 142.654 36.1297 142.654 73.9844C142.654 75.4607 143.851 76.6418 145.312 76.6418C146.772 76.6418 147.969 75.4452 147.969 73.9844C147.969 33.1927 114.776 0 73.9843 0C33.1927 0 -9.15527e-05 33.1927 -9.15527e-05 73.9844H0.0310211Z" fill="#E3E3E3"/>
</svg>
